<svg xmlns="http://www.w3.org/2000/svg" viewBox="0 0 182.94 171.3"><defs><style>.cls-1{fill:#fff;}.cls-2{opacity:0.39;}</style></defs><title>code</title><g id="圖層_2" data-name="圖層 2"><g id="icon"><path class="cls-1" d="M46.48,19.17a3.57,3.57,0,1,0-3.57-3.56A3.57,3.57,0,0,0,46.48,19.17Z"/><path class="cls-1" d="M32.22,19.17a3.57,3.57,0,1,0-3.57-3.56A3.57,3.57,0,0,0,32.22,19.17Z"/><path class="cls-1" d="M18,19.17a3.57,3.57,0,1,0-3.57-3.56A3.57,3.57,0,0,0,18,19.17Z"/><path class="cls-1" d="M167.87,69.2H131.54V16.61A16.63,16.63,0,0,0,114.93,0H16.61A16.63,16.63,0,0,0,0,16.61v98.32a16.63,16.63,0,0,0,16.61,16.61H58.29v24.69A15.09,15.09,0,0,0,73.36,171.3h94.51a15.09,15.09,0,0,0,15.07-15.07v-72A15.09,15.09,0,0,0,167.87,69.2ZM16.61,6h98.32a10.62,10.62,0,0,1,10.61,10.61V27.23H6V16.61A10.62,10.62,0,0,1,16.61,6Zm1.16,64.43H10V68.9c2.8-2.54,4.68-4.57,4.68-6.2a1.4,1.4,0,0,0-1.46-1.58,2.66,2.66,0,0,0-1.89,1.09L9.87,60.76A4.67,4.67,0,0,1,13.58,59a3.41,3.41,0,0,1,3.67,3.52c0,1.93-1.65,4-3.37,5.78a15,15,0,0,1,1.82-.15h2.07ZM10.86,43.86V42.2a7.49,7.49,0,0,0,2.77-1h2v9h2v2.17H10.55V50.22h2.37V43.86ZM176.94,156.23a9.08,9.08,0,0,1-9.07,9.07H73.36a9.08,9.08,0,0,1-9.07-9.07v-72a9.08,9.08,0,0,1,9.07-9.07H90a2.76,2.76,0,0,0,.57-.06l.17,0A2.47,2.47,0,0,0,91.1,75a1.76,1.76,0,0,0,.2-.09l.28-.16.19-.12L92,74.4l.16-.15a2.39,2.39,0,0,0,.21-.26l.13-.18a2.85,2.85,0,0,0,.16-.3,1.14,1.14,0,0,0,.1-.19c0-.11.07-.23.1-.34a1.66,1.66,0,0,0,.06-.21v0c1.56-8.33,6.36-10.87,6.63-11A3,3,0,0,0,97,56.31c-.3.14-6.72,3.24-9.4,12.89H73.36A15.09,15.09,0,0,0,58.29,84.27v41.27H28.65V33.23h96.89v36h-22a3,3,0,0,0,0,6h64.32a9.08,9.08,0,0,1,9.07,9.07Z"/><path class="cls-1" d="M107.38,46.79a3,3,0,0,0-3-3h-66a3,3,0,0,0,0,6h66A3,3,0,0,0,107.38,46.79Z"/><path class="cls-1" d="M99.62,122.32a7.63,7.63,0,0,0,5.17-2.4h.14l.45,1.91h5V94.11H104.2v6.59l.25,3a6.22,6.22,0,0,0-4.76-2.05c-4.09,0-8.15,3.89-8.15,10.38S94.7,122.32,99.62,122.32Zm1.53-15.69a4.38,4.38,0,0,1,3,1.18v7.78a3.2,3.2,0,0,1-3,1.66c-2.11,0-3.36-1.59-3.36-5.38S99.45,106.63,101.15,106.63Z"/><rect class="cls-1" x="115.38" y="102.09" width="6.14" height="19.74"/><path class="cls-1" d="M118.47,99.35a3.19,3.19,0,1,0-3.54-3.16A3.22,3.22,0,0,0,118.47,99.35Z"/><path class="cls-1" d="M138.21,121.83l6.39-19.74h-5.94l-2.42,9.09c-.49,1.94-1,4-1.46,6.07h-.18c-.52-2.08-1-4.13-1.49-6.07l-2.39-9.09h-6.21l6.56,19.74Z"/><g class="cls-2"><path class="cls-1" d="M92.06,142.92c-1.08-.39-2-.62-2-1.25s.37-.75,1.1-.75a4.06,4.06,0,0,1,2.16.88l1.46-1.94A6.11,6.11,0,0,0,91,138.53c-2.41,0-4,1.33-4,3.31,0,1.72,1.46,2.56,2.7,3,1.06.42,2.07.71,2.07,1.34s-.37.82-1.23.82a4.42,4.42,0,0,1-2.63-1.1l-1.44,2a6.65,6.65,0,0,0,4,1.46c2.83,0,4.33-1.48,4.33-3.4S93.36,143.41,92.06,142.92Z"/><path class="cls-1" d="M103,138.53a4.7,4.7,0,0,0-3.32,1.55h-.08l-.22-1.29H96.68v10.4h3.24v-6.95a2.5,2.5,0,0,1,1.81-.93c.82,0,1.21.42,1.21,1.85v6h3.25v-6.44C106.19,140.16,105.22,138.53,103,138.53Z"/><path class="cls-1" d="M110.34,134a1.68,1.68,0,1,0,1.84,1.68A1.71,1.71,0,0,0,110.34,134Z"/><rect class="cls-1" x="108.71" y="138.79" width="3.24" height="10.4"/><path class="cls-1" d="M120.44,138.53a4.5,4.5,0,0,0-2.92,1.26h-.08l-.21-1h-2.65V153h3.23v-3l-.09-1.63a3.38,3.38,0,0,0,2.41,1.08c2.23,0,4.37-2,4.37-5.63C124.5,140.61,122.93,138.53,120.44,138.53Zm-1.08,8.24a2.25,2.25,0,0,1-1.55-.6v-4.11a2.24,2.24,0,0,1,1.66-.88c1.16,0,1.69.86,1.69,2.69C121.16,146,120.35,146.77,119.36,146.77Z"/><path class="cls-1" d="M132.47,138.53a4.55,4.55,0,0,0-2.93,1.26h-.07l-.22-1H126.6V153h3.24v-3l-.1-1.63a3.42,3.42,0,0,0,2.42,1.08c2.23,0,4.37-2,4.37-5.63C136.53,140.61,135,138.53,132.47,138.53Zm-1.08,8.24a2.25,2.25,0,0,1-1.55-.6v-4.11a2.23,2.23,0,0,1,1.66-.88c1.15,0,1.68.86,1.68,2.69C133.18,146,132.38,146.77,131.39,146.77Z"/><path class="cls-1" d="M143,138.53c-2.53,0-4.94,2.08-4.94,5.47a5.08,5.08,0,0,0,5.28,5.44,6.77,6.77,0,0,0,3.73-1.18l-1.08-2a4.21,4.21,0,0,1-2.19.66,2.39,2.39,0,0,1-2.6-2h6.11a6.12,6.12,0,0,0,.15-1.39C147.44,140.71,146,138.53,143,138.53Zm-1.85,4.3A1.91,1.91,0,0,1,143,141c1.19,0,1.65.76,1.65,1.81Z"/><path class="cls-1" d="M154.29,146.9c-.77,0-1.32-.45-1.32-1.61v-4h2.45v-2.54H153V136h-2.7l-.37,2.75-1.59.12v2.42h1.41v4c0,2.47,1.06,4.11,3.67,4.11a7.84,7.84,0,0,0,2.36-.38l-.51-2.34A3.82,3.82,0,0,1,154.29,146.9Z"/></g></g></g></svg>