<svg xmlns="http://www.w3.org/2000/svg" viewBox="0 0 174.51 176.37"><defs><style>.cls-1{fill:#fff;}</style></defs><title>Community</title><g id="圖層_2" data-name="圖層 2"><g id="icon"><path class="cls-1" d="M81.77,115.86,64.39,108a35,35,0,0,0-5.68-45.25L73.24,46.93a26.21,26.21,0,1,0-4-3.8L54.35,59.32a35.1,35.1,0,1,0,6.19,53.48l18.75,8.52a3,3,0,0,0,2.48-5.46ZM76.26,42.31A15,15,0,0,1,103.66,41a20.62,20.62,0,0,1-27.4,1.28Zm13-15a6.63,6.63,0,1,1,6.63-6.63A6.64,6.64,0,0,1,89.24,27.26Zm0-21.76a20.67,20.67,0,0,1,18,30.85,20.39,20.39,0,0,0-9.15-7.49A12.12,12.12,0,1,0,81,29.51,20.68,20.68,0,0,0,72.24,38a20.51,20.51,0,0,1-3.7-11.77A20.73,20.73,0,0,1,89.25,5.5ZM35.1,59.56A29.07,29.07,0,0,1,59.8,104,27.19,27.19,0,0,0,45.9,92.57a15.83,15.83,0,1,0-20.71.79,27.54,27.54,0,0,0-13.27,12.87A29.08,29.08,0,0,1,35.1,59.56Zm0,31.3A9.84,9.84,0,1,1,44.93,81,9.84,9.84,0,0,1,35.09,90.86Zm0,26.89a28.94,28.94,0,0,1-18.68-6.81,21.33,21.33,0,0,1,39.34-1.81A29,29,0,0,1,35.1,117.75Z"/><path class="cls-1" d="M141.79,122.77a2,2,0,0,0-1,1.19l-4.62,14.42A2.05,2.05,0,0,0,137.4,141a1.94,1.94,0,0,0,.63.11,2,2,0,0,0,1.88-1.4l4.62-14.42a2.06,2.06,0,0,0-1.25-2.57A1.93,1.93,0,0,0,141.79,122.77Z"/><path class="cls-1" d="M150.1,126l5.56,5.78-5.56,5.78a2.09,2.09,0,0,0,0,2.87,2,2,0,0,0,1.41.6,2,2,0,0,0,1.4-.6l6.93-7.21a2.09,2.09,0,0,0,0-2.87l-6.93-7.21a1.92,1.92,0,0,0-1.4-.61h0a2,2,0,0,0-1.41.61A2.08,2.08,0,0,0,150.1,126Z"/><path class="cls-1" d="M112.48,123.17a1.92,1.92,0,0,0-1.4-.61h0a1.92,1.92,0,0,0-1.4.61l-6.93,7.21a2.08,2.08,0,0,0,0,2.86l6.93,7.22a1.93,1.93,0,0,0,2.8,0,2.09,2.09,0,0,0,0-2.87l-5.55-5.78,5.55-5.78A2.08,2.08,0,0,0,112.48,123.17Z"/><path class="cls-1" d="M129.17,137h-9.23a2,2,0,0,0,0,4.07h9.23a2,2,0,0,0,0-4.07Z"/><path class="cls-1" d="M163.19,100.35a3,3,0,0,0-4.53,3.94,40.38,40.38,0,0,1,9.85,26.58c0,21.78-17,39.5-37.84,39.5a36.47,36.47,0,0,1-22.75-7.94,39.34,39.34,0,0,1-11-13.62,40.38,40.38,0,0,1-4.12-17.94c0-21.78,17-39.5,37.83-39.5a36.18,36.18,0,0,1,14.69,3.09A3,3,0,1,0,147.78,89a42.12,42.12,0,0,0-17.11-3.6c-24.17,0-43.83,20.41-43.83,45.5a46.43,46.43,0,0,0,4.73,20.58,45.56,45.56,0,0,0,12.63,15.69,42.41,42.41,0,0,0,26.47,9.23c24.18,0,43.84-20.41,43.84-45.5A46.37,46.37,0,0,0,163.19,100.35Z"/></g></g></svg>