<svg xmlns="http://www.w3.org/2000/svg" viewBox="0 0 194.44 158.5"><defs><style>.cls-1{fill:#fff;}</style></defs><title>editor</title><g id="圖層_2" data-name="圖層 2"><g id="icon"><path class="cls-1" d="M181.48,18H103.53V11.27A11.29,11.29,0,0,0,92.26,0h-81A11.29,11.29,0,0,0,0,11.27V63.33A11.29,11.29,0,0,0,11.27,74.61H20a3,3,0,0,0,0-6H11.27A5.29,5.29,0,0,1,6,63.33V11.27A5.28,5.28,0,0,1,11.27,6h81a5.28,5.28,0,0,1,5.27,5.27V18H84a13,13,0,0,0-13,13V52.55H41.72a15,15,0,0,0-15,15v75.5a15,15,0,0,0,15,15h22a3,3,0,0,0,1.5.45h0a3,3,0,0,0,1.56-.45H94.67a3,3,0,0,0,1.56.45,2.93,2.93,0,0,0,1.55-.45h31.79a3,3,0,0,0,1.56.45h.05a3,3,0,0,0,1.5-.45h26.5a15,15,0,0,0,15-15V67.55a15,15,0,0,0-15-15H147.71a3,3,0,0,0,0,6h11.47a9,9,0,0,1,9,9v75.5a9.06,9.06,0,0,1-.18,1.82c-1.66-13.87-8.7-28.39-19.55-39.88C135,90.69,117.8,82.82,100.13,82.82c-.82,0-1.63,0-2.44.07a2.63,2.63,0,0,0-1,0,3,3,0,0,0-1.54.15,71.38,71.38,0,0,0-48,23.78,3,3,0,0,0-1.12,1.26A68.44,68.44,0,0,0,32.93,131.6l-.21.11V67.55a9,9,0,0,1,9-9h83a3,3,0,0,0,0-6H77V30.94a7,7,0,0,1,7-7h97.53a7,7,0,0,1,7,7v62.7a7,7,0,0,1-7,7,3,3,0,0,0,0,6,13,13,0,0,0,13-13V30.94A13,13,0,0,0,181.48,18ZM35.91,149.91a57.58,57.58,0,0,1,1.65-12.63H63.72a131.84,131.84,0,0,0-1.39,14.77H41.72A8.9,8.9,0,0,1,35.91,149.91Zm14.36-37.57H70.84a93.24,93.24,0,0,0-6,18.94H39.36A62.71,62.71,0,0,1,50.27,112.34Zm64.15-6H99.23V91A56.13,56.13,0,0,1,114.42,106.34Zm-21.19,6v18.94H71a86.12,86.12,0,0,1,6.53-18.94Zm-12.35-6c.88-1.42,1.8-2.83,2.8-4.19a54,54,0,0,1,9.55-10.1v14.29Zm12.35,30.94v14.77H68.34a122.42,122.42,0,0,1,1.5-14.77Zm6,0h27.2A111,111,0,0,1,128,152.05H99.23Zm0-6V112.34h18.82a80,80,0,0,1,7.13,18.94Zm25.56-18.94h22.15a70.19,70.19,0,0,1,11.39,18.94h-27A87.76,87.76,0,0,0,124.79,112.34Zm-3.26-6A66,66,0,0,0,107,89.28c12.4,1.6,24.3,7.49,34.33,17.06Zm-47.71,0H56a65.62,65.62,0,0,1,29.9-15.88A65.91,65.91,0,0,0,73.82,106.34ZM134,152.05a118.37,118.37,0,0,0-1.49-14.77h27.52a3,3,0,0,0,.31,0,50.92,50.92,0,0,1,2,13.83,2.2,2.2,0,0,0,0,.36,9,9,0,0,1-3.24.61Z"/><polygon class="cls-1" points="48.32 76.4 48.32 66.51 45.97 66.51 45.97 70.27 42.71 70.27 42.71 66.51 40.33 66.51 40.33 76.4 42.71 76.4 42.71 72.33 45.97 72.33 45.97 76.4 48.32 76.4"/><polygon class="cls-1" points="54.91 76.4 54.91 68.48 57.59 68.48 57.59 66.51 49.86 66.51 49.86 68.48 52.53 68.48 52.53 76.4 54.91 76.4"/><path class="cls-1" d="M66.34,76.4H68.5V66.51H65.92l-1.51,4.27c-.19.57-.35,1.2-.55,1.81H63.8c-.19-.61-.35-1.24-.55-1.81l-1.56-4.27H59.12V76.4h2.13V73a32.86,32.86,0,0,0-.31-3.43H61l.8,2.37,1.34,3.61h1.31L65.77,72l.82-2.37h0a32.84,32.84,0,0,0-.3,3.43Z"/><polygon class="cls-1" points="70.77 66.51 70.77 76.4 76.99 76.4 76.99 74.41 73.15 74.41 73.15 66.51 70.77 66.51"/><path class="cls-1" d="M89.06,33.36a2.45,2.45,0,0,1,1.71.77L92,32.62a4.19,4.19,0,0,0-3-1.29c-2.52,0-4.72,1.88-4.72,5.18s2.12,5.08,4.64,5.08a4.1,4.1,0,0,0,3.23-1.47l-1.25-1.48a2.61,2.61,0,0,1-1.89.9c-1.4,0-2.3-1.14-2.3-3.11S87.78,33.36,89.06,33.36Z"/><path class="cls-1" d="M96.3,39.54a4,4,0,0,1-2.41-1l-1.34,1.64a5.55,5.55,0,0,0,3.69,1.42c2.4,0,3.78-1.45,3.78-3.1a2.73,2.73,0,0,0-2-2.71l-1.24-.49c-.88-.35-1.5-.56-1.5-1.11s.45-.82,1.18-.82a3.22,3.22,0,0,1,2,.76l1.19-1.49a4.64,4.64,0,0,0-3.22-1.3c-2.1,0-3.59,1.33-3.59,3a2.9,2.9,0,0,0,2,2.71l1.26.53c.85.36,1.4.54,1.4,1.12S97.18,39.54,96.3,39.54Z"/><path class="cls-1" d="M104.5,39.54a4,4,0,0,1-2.41-1l-1.34,1.64a5.53,5.53,0,0,0,3.69,1.42c2.4,0,3.78-1.45,3.78-3.1a2.72,2.72,0,0,0-2-2.71L105,35.29c-.88-.35-1.5-.56-1.5-1.11s.45-.82,1.18-.82a3.22,3.22,0,0,1,2,.76l1.19-1.49a4.64,4.64,0,0,0-3.22-1.3c-2.1,0-3.59,1.33-3.59,3a2.9,2.9,0,0,0,2,2.71l1.26.53c.85.36,1.4.54,1.4,1.12S105.37,39.54,104.5,39.54Z"/><path class="cls-1" d="M14.29,20.54a1.57,1.57,0,0,1-1.33-1l-1.62,1.21a3.46,3.46,0,0,0,3.27,1.82c2.22,0,3.24-1.6,3.24-3.54V12.51H15.47v6.36C15.47,20.15,15.06,20.54,14.29,20.54Z"/><path class="cls-1" d="M25,16.78l-1.23-.49c-.88-.35-1.51-.56-1.51-1.11s.46-.82,1.19-.82a3.22,3.22,0,0,1,2,.76l1.18-1.49a4.6,4.6,0,0,0-3.21-1.3c-2.1,0-3.59,1.33-3.59,3a2.9,2.9,0,0,0,2,2.71l1.26.53c.85.36,1.39.54,1.39,1.12s-.41.86-1.29.86a4,4,0,0,1-2.4-1l-1.34,1.64a5.53,5.53,0,0,0,3.69,1.42c2.39,0,3.78-1.45,3.78-3.1A2.74,2.74,0,0,0,25,16.78Z"/></g></g></svg>