<svg xmlns="http://www.w3.org/2000/svg" viewBox="0 0 108.81 108.81" style="fill:#f1f1f3;width:50px;height:80px"><g id="圖層_1-2" data-name="圖層 1"><path d="M64.84 1 60 19.19a36.24 36.24.0 0 0-11.1.0L44.05 1A54.23 54.23.0 0 1 64.91 1z"/><path d="M41.61 21.14A34.86 34.86.0 0 0 32 26.77L18.76 13.38A53.69 53.69.0 0 1 36.81 3z"/><path d="M26.7 32a34.86 34.86.0 0 0-5.63 9.6L2.87 36.73a53.88 53.88.0 0 1 10.51-18z"/><path d="M18.76 54.41A36.49 36.49.0 0 0 19.19 60L1 64.91A54.23 54.23.0 0 1 1 44.05l18.18 4.73A36.52 36.52.0 0 0 18.76 54.41z"/><path d="M26.7 76.81 13.38 90.05A53.69 53.69.0 0 1 3 72l18.19-4.87A35 35 0 0 0 26.7 76.81z"/><path d="M41.61 87.67l-4.88 18.2a54.11 54.11.0 0 1-18-10.43L32.08 82.12A35.14 35.14.0 0 0 41.61 87.67z"/><path d="M64.84 107.8a54.28 54.28.0 0 1-20.87.0l4.81-18.18a35.62 35.62.0 0 0 11.1.0z"/><path d="M90.05 95.44a54 54 0 0 1-18 10.43l-4.87-18.2A34.86 34.86.0 0 0 76.73 82z"/><path d="M105.87 72.08a54.11 54.11.0 0 1-10.43 18L82.12 76.73a35.08 35.08.0 0 0 5.62-9.6z"/><path d="M108.81 54.41a53 53 0 0 1-1 10.43L89.62 60a35.62 35.62.0 0 0 0-11.1l18.18-4.88A53.74 53.74.0 0 1 108.81 54.41z"/><path d="M105.87 36.73l-18.2 4.88A34.86 34.86.0 0 0 82 32L95.36 18.69A53.76 53.76.0 0 1 105.87 36.73z"/><path d="M90.05 13.38 76.73 26.7a34.86 34.86.0 0 0-9.6-5.63L72 2.87A53.71 53.71.0 0 1 90.05 13.38z"/><animateTransform attributeType="auto" dur="2s" attributeName="transform" repeatCount="indefinite" type="rotate" from="0,54.23,54.23" to="360,54.23,54.23"/></g></svg>