<svg id="logo-crystal-white" data-name="logo-crystal-white" xmlns="http://www.w3.org/2000/svg" viewBox="0 0 35.41 39.62"><defs><style>.cls-1{fill:#f1f1f3;}</style></defs><title>logo-crystal-white</title><path class="cls-1" d="M25.59,19.22l-4.33.65-2.59-1.49,2.61-1.51,4.19.81h.08a.38.38,0,0,0,.07-.76h0l-3.88-.75,1.48-3.77a.39.39,0,0,0-.21-.5h0a.39.39,0,0,0-.5.21L20.9,16.2l-2.63,1.51v-3l2.8-3.23a.39.39,0,0,0-.59-.51L17.9,14,15.37,10.8a.38.38,0,0,0-.54-.06.37.37,0,0,0-.06.54l2.73,3.43v3l-2.62-1.52-1.4-4a.39.39,0,0,0-.73.25l1.3,3.73-4,.61a.38.38,0,0,0-.34.42v0a.39.39,0,0,0,.38.33h.06l4.34-.65,2.61,1.51L14.53,19.9l-4.2-.8a.39.39,0,0,0-.45.31.37.37,0,0,0,.27.45h0l3.88.75-1.49,3.67a.38.38,0,0,0,.21.5h.15a.39.39,0,0,0,.36-.25l1.61-4.08L17.49,19v3L14.7,25.28a.37.37,0,0,0,0,.52l0,0a.32.32,0,0,0,.25.1.37.37,0,0,0,.29-.14l2.59-3L20.35,26a.41.41,0,0,0,.31.14A.38.38,0,0,0,21,26a.4.4,0,0,0,.06-.55L18.32,22V19l2.59,1.49,1.4,4a.4.4,0,0,0,.37.26.24.24,0,0,0,.12,0,.39.39,0,0,0,.19-.47l-1.29-3.7,4-.6a.39.39,0,0,0,.32-.44.39.39,0,0,0-.44-.32Zm-7.74-.89Z"/><path class="cls-1" d="M17.73,0A17.68,17.68,0,0,0,5.28,30.28a1.69,1.69,0,0,1,1.12-.64A1.68,1.68,0,0,0,7,32.88H28.77a1.68,1.68,0,0,0,1.68-1.68h0a1.7,1.7,0,0,0-.3-1A17.66,17.66,0,0,0,17.73,0Zm6.78,29.51H11a13.62,13.62,0,1,1,13.56,0Z"/><path class="cls-1" d="M30.11,35.68a1.36,1.36,0,0,0-1.31-1H7a1.33,1.33,0,0,0-1.31,1L5.12,38a1.4,1.4,0,0,0,.25,1.15,1.32,1.32,0,0,0,1.06.52H29.35a1.36,1.36,0,0,0,1.35-1.35,1.65,1.65,0,0,0,0-.32Z"/></svg>